<svg width="112" height="27" viewBox="0 0 112 27" fill="none" xmlns="http://www.w3.org/2000/svg">
<path d="M0.858 12.798C0.858 11.3073 1.16133 10.0073 1.768 8.898C2.37467 7.77133 3.21533 6.90467 4.29 6.298C5.36467 5.674 6.59533 5.362 7.982 5.362C9.76733 5.362 11.2407 5.81267 12.402 6.714C13.5807 7.598 14.3693 8.846 14.768 10.458H10.842C10.634 9.834 10.2787 9.34867 9.776 9.002C9.29067 8.638 8.684 8.456 7.956 8.456C6.916 8.456 6.09267 8.83733 5.486 9.6C4.87933 10.3453 4.576 11.4113 4.576 12.798C4.576 14.1673 4.87933 15.2333 5.486 15.996C6.09267 16.7413 6.916 17.114 7.956 17.114C9.42933 17.114 10.3913 16.4553 10.842 15.138H14.768C14.3693 16.698 13.5807 17.9373 12.402 18.856C11.2233 19.7747 9.75 20.234 7.982 20.234C6.59533 20.234 5.36467 19.9307 4.29 19.324C3.21533 18.7 2.37467 17.8333 1.768 16.724C1.16133 15.5973 0.858 14.2887 0.858 12.798ZM25.5466 5.388C26.6386 5.388 27.6093 5.63067 28.4586 6.116C29.308 6.584 29.9666 7.286 30.4346 8.222C30.92 9.14067 31.1626 10.25 31.1626 11.55V20H27.5226V12.044C27.5226 10.9 27.2366 10.0247 26.6646 9.418C26.0926 8.794 25.3126 8.482 24.3246 8.482C23.3193 8.482 22.522 8.794 21.9326 9.418C21.3606 10.0247 21.0746 10.9 21.0746 12.044V20H17.4346V0.76H21.0746V7.39C21.5426 6.766 22.1666 6.28067 22.9466 5.934C23.7266 5.57 24.5933 5.388 25.5466 5.388ZM33.6881 12.746C33.6881 11.29 33.9741 9.99867 34.5461 8.872C35.1354 7.74533 35.9241 6.87867 36.9121 6.272C37.9174 5.66533 39.0354 5.362 40.2661 5.362C41.3407 5.362 42.2767 5.57867 43.0741 6.012C43.8887 6.44533 44.5387 6.99133 45.0241 7.65V5.596H48.6901V20H45.0241V17.894C44.5561 18.57 43.9061 19.1333 43.0741 19.584C42.2594 20.0173 41.3147 20.234 40.2401 20.234C39.0267 20.234 37.9174 19.922 36.9121 19.298C35.9241 18.674 35.1354 17.7987 34.5461 16.672C33.9741 15.528 33.6881 14.2193 33.6881 12.746ZM45.0241 12.798C45.0241 11.914 44.8507 11.16 44.5041 10.536C44.1574 9.89467 43.6894 9.40933 43.1001 9.08C42.5107 8.73333 41.8781 8.56 41.2021 8.56C40.5261 8.56 39.9021 8.72467 39.3301 9.054C38.7581 9.38333 38.2901 9.86867 37.9261 10.51C37.5794 11.134 37.4061 11.8793 37.4061 12.746C37.4061 13.6127 37.5794 14.3753 37.9261 15.034C38.2901 15.6753 38.7581 16.1693 39.3301 16.516C39.9194 16.8627 40.5434 17.036 41.2021 17.036C41.8781 17.036 42.5107 16.8713 43.1001 16.542C43.6894 16.1953 44.1574 15.71 44.5041 15.086C44.8507 14.4447 45.0241 13.682 45.0241 12.798ZM56.4832 8.586V15.554C56.4832 16.0393 56.5958 16.3947 56.8212 16.62C57.0638 16.828 57.4625 16.932 58.0172 16.932H59.7072V20H57.4192C54.3512 20 52.8172 18.5093 52.8172 15.528V8.586H51.1012V5.596H52.8172V2.034H56.4832V5.596H59.7072V8.586H56.4832ZM61.9353 12.928C61.9353 11.472 62.2213 10.198 62.7933 9.106C63.3826 8.014 64.1886 7.17333 65.2113 6.584C66.2513 5.99467 67.4299 5.7 68.7473 5.7C70.2379 5.7 71.5033 6.064 72.5433 6.792C73.5833 7.52 74.3113 8.44733 74.7273 9.574V5.882H75.8973V20H74.7273V16.282C74.3113 17.426 73.5746 18.3707 72.5173 19.116C71.4773 19.844 70.2206 20.208 68.7473 20.208C67.4299 20.208 66.2513 19.9133 65.2113 19.324C64.1886 18.7173 63.3826 17.868 62.7933 16.776C62.2213 15.6667 61.9353 14.384 61.9353 12.928ZM74.7273 12.928C74.7273 11.6973 74.4673 10.614 73.9473 9.678C73.4446 8.72467 72.7513 7.99667 71.8673 7.494C70.9833 6.974 69.9953 6.714 68.9033 6.714C67.7593 6.714 66.7539 6.96533 65.8873 7.468C65.0206 7.95333 64.3446 8.664 63.8593 9.6C63.3739 10.536 63.1313 11.6453 63.1313 12.928C63.1313 14.2107 63.3739 15.32 63.8593 16.256C64.3446 17.192 65.0206 17.9113 65.8873 18.414C66.7713 18.9167 67.7766 19.168 68.9033 19.168C69.9953 19.168 70.9833 18.9167 71.8673 18.414C72.7686 17.894 73.4706 17.166 73.9733 16.23C74.4759 15.2767 74.7273 14.176 74.7273 12.928ZM81.3274 9.6C81.7261 8.456 82.4454 7.52 83.4854 6.792C84.5427 6.064 85.8167 5.7 87.3074 5.7C88.6247 5.7 89.7947 5.99467 90.8174 6.584C91.8574 7.17333 92.6634 8.014 93.2354 9.106C93.8247 10.198 94.1194 11.472 94.1194 12.928C94.1194 14.384 93.8247 15.6667 93.2354 16.776C92.6634 17.868 91.8574 18.7173 90.8174 19.324C89.7947 19.9133 88.6247 20.208 87.3074 20.208C85.8341 20.208 84.5687 19.844 83.5114 19.116C82.4714 18.3707 81.7434 17.4347 81.3274 16.308V26.656H80.1574V5.882H81.3274V9.6ZM92.9234 12.928C92.9234 11.6453 92.6807 10.536 92.1954 9.6C91.7101 8.664 91.0254 7.95333 90.1414 7.468C89.2747 6.96533 88.2694 6.714 87.1254 6.714C86.0334 6.714 85.0454 6.974 84.1614 7.494C83.2774 7.99667 82.5841 8.72467 82.0814 9.678C81.5787 10.614 81.3274 11.6973 81.3274 12.928C81.3274 14.176 81.5787 15.2767 82.0814 16.23C82.5841 17.166 83.2774 17.894 84.1614 18.414C85.0454 18.9167 86.0334 19.168 87.1254 19.168C88.2694 19.168 89.2747 18.9167 90.1414 18.414C91.0254 17.9113 91.7101 17.192 92.1954 16.256C92.6807 15.32 92.9234 14.2107 92.9234 12.928ZM98.8215 9.6C99.2202 8.456 99.9395 7.52 100.98 6.792C102.037 6.064 103.311 5.7 104.802 5.7C106.119 5.7 107.289 5.99467 108.312 6.584C109.352 7.17333 110.158 8.014 110.73 9.106C111.319 10.198 111.614 11.472 111.614 12.928C111.614 14.384 111.319 15.6667 110.73 16.776C110.158 17.868 109.352 18.7173 108.312 19.324C107.289 19.9133 106.119 20.208 104.802 20.208C103.328 20.208 102.063 19.844 101.006 19.116C99.9655 18.3707 99.2375 17.4347 98.8215 16.308V26.656H97.6515V5.882H98.8215V9.6ZM110.418 12.928C110.418 11.6453 110.175 10.536 109.69 9.6C109.204 8.664 108.52 7.95333 107.636 7.468C106.769 6.96533 105.764 6.714 104.62 6.714C103.528 6.714 102.54 6.974 101.656 7.494C100.772 7.99667 100.078 8.72467 99.5755 9.678C99.0729 10.614 98.8215 11.6973 98.8215 12.928C98.8215 14.176 99.0729 15.2767 99.5755 16.23C100.078 17.166 100.772 17.894 101.656 18.414C102.54 18.9167 103.528 19.168 104.62 19.168C105.764 19.168 106.769 18.9167 107.636 18.414C108.52 17.9113 109.204 17.192 109.69 16.256C110.175 15.32 110.418 14.2107 110.418 12.928Z" fill="#179993"/>
</svg>
